<svg id="Layer_1" data-name="Layer 1" xmlns="http://www.w3.org/2000/svg" xmlns:xlink="http://www.w3.org/1999/xlink" viewBox="0 0 23.98 25.15"><defs><style>.cls-1{fill:none;}.cls-2{clip-path:url(#clip-path);}.cls-3{fill:#fff;}.cls-4{clip-path:url(#clip-path-2);}</style><clipPath id="clip-path" transform="translate(-3.01 -3.01)"><rect class="cls-1" width="30" height="30"/></clipPath><clipPath id="clip-path-2" transform="translate(-3.01 -3.01)"><circle class="cls-1" cx="15" cy="15" r="11.99"/></clipPath></defs><g class="cls-2"><circle class="cls-3" cx="11.99" cy="11.99" r="11.99"/><g class="cls-4"><path d="M12.59,28.16h4.15V18.72h3.34L20.61,15s.08,0-.3,0H16.74V11.49a1.66,1.66,0,0,1,1.83-1.26h1.95l0-3.29a10.28,10.28,0,0,0-4.39-.2,4.27,4.27,0,0,0-2.76,1.67,3.16,3.16,0,0,0-.75,2.05V15H9.38v3.77h3.21Z" transform="translate(-3.01 -3.01)"/></g></g></svg>