<svg id="Layer_1" data-name="Layer 1" xmlns="http://www.w3.org/2000/svg" xmlns:xlink="http://www.w3.org/1999/xlink" viewBox="0 0 23.98 23.98"><defs><style>.cls-1{fill:none;}.cls-2{clip-path:url(#clip-path);}.cls-3{fill:#fff;}</style><clipPath id="clip-path" transform="translate(-3.01 -3.01)"><rect class="cls-1" width="30" height="30"/></clipPath></defs><g class="cls-2"><circle class="cls-3" cx="11.99" cy="11.99" r="11.99"/><path d="M23.43,10.74a2.2,2.2,0,0,0-1.55-1.57A52.39,52.39,0,0,0,15,8.8a52.39,52.39,0,0,0-6.88.37,2.2,2.2,0,0,0-1.55,1.57A23,23,0,0,0,6.2,15a23,23,0,0,0,.37,4.26,2.2,2.2,0,0,0,1.55,1.57A52.39,52.39,0,0,0,15,21.2a52.39,52.39,0,0,0,6.88-.37,2.2,2.2,0,0,0,1.55-1.57A23,23,0,0,0,23.8,15,23,23,0,0,0,23.43,10.74Z" transform="translate(-3.01 -3.01)"/><polyline class="cls-3" points="12.33 10.59 14.79 11.99 10.19 14.61 10.19 9.37 12.33 10.59"/></g></svg>