<svg id="Layer_1" data-name="Layer 1" xmlns="http://www.w3.org/2000/svg" xmlns:xlink="http://www.w3.org/1999/xlink" viewBox="0 0 24.7 24.7"><defs><style>.cls-1{fill:none;}.cls-2{clip-path:url(#clip-path);}.cls-3{fill:#fff;}</style><clipPath id="clip-path" transform="translate(-2.65 -2.65)"><rect class="cls-1" width="30" height="30"/></clipPath></defs><g class="cls-2"><circle class="cls-3" cx="12.35" cy="12.35" r="12.35"/><path d="M18,7.19H12A4.82,4.82,0,0,0,7.19,12v6A4.82,4.82,0,0,0,12,22.81h6A4.82,4.82,0,0,0,22.81,18V12A4.82,4.82,0,0,0,18,7.19Zm3.31,10.23a3.89,3.89,0,0,1-3.89,3.89H12.58a3.89,3.89,0,0,1-3.89-3.89V12.58a3.89,3.89,0,0,1,3.89-3.89h4.84a3.89,3.89,0,0,1,3.89,3.89Z" transform="translate(-2.65 -2.65)"/><path d="M15.21,10.91A4.12,4.12,0,1,0,19.32,15,4.12,4.12,0,0,0,15.21,10.91Zm0,6.59A2.48,2.48,0,1,1,17.68,15,2.48,2.48,0,0,1,15.21,17.5Z" transform="translate(-2.65 -2.65)"/><path d="M20.08,10.85a1,1,0,1,1-1-1A1,1,0,0,1,20.08,10.85Z" transform="translate(-2.65 -2.65)"/></g></svg>