<svg id="Layer_1" data-name="Layer 1" xmlns="http://www.w3.org/2000/svg" xmlns:xlink="http://www.w3.org/1999/xlink" viewBox="0 0 24.7 24.7"><defs><style>.cls-1{fill:none;}.cls-2{clip-path:url(#clip-path);}.cls-3{fill:#fff;}</style><clipPath id="clip-path" transform="translate(-2.65 -2.65)"><rect class="cls-1" width="30" height="30"/></clipPath></defs><g class="cls-2"><circle class="cls-3" cx="12.35" cy="12.35" r="12.35"/><path d="M20.61,8.11H9.39A2.59,2.59,0,0,0,6.81,10.7v6.17a2.59,2.59,0,0,0,2.58,2.59h3.87l1.31,2.15,0,.06a.44.44,0,0,0,.38.22.45.45,0,0,0,.38-.22l0-.06,1.31-2.15h3.87a2.59,2.59,0,0,0,2.58-2.59V10.7A2.59,2.59,0,0,0,20.61,8.11Z" transform="translate(-2.65 -2.65)"/><path class="cls-3" d="M10.45,12.62a1.34,1.34,0,0,0-.86.4V11.43h-1v4.18h1v-.33a1,1,0,0,0,.85.43,1.47,1.47,0,0,0,1.41-1.56S11.81,12.62,10.45,12.62Zm-.23,2.21a.65.65,0,1,1,.65-.65A.65.65,0,0,1,10.22,14.83Z" transform="translate(-2.65 -2.65)"/><path class="cls-3" d="M12.18,11.33v1s.46,0,.46.83v2.48h1V12.9S13.65,11.33,12.18,11.33Z" transform="translate(-2.65 -2.65)"/><path class="cls-3" d="M16,12.64s-1.66,0-1.66,1.54A1.5,1.5,0,0,0,16,15.71s1.7,0,1.7-1.53A1.52,1.52,0,0,0,16,12.64Zm0,2.19a.65.65,0,1,1,.65-.65A.65.65,0,0,1,16,14.83Z" transform="translate(-2.65 -2.65)"/><path class="cls-3" d="M20.44,12.74V13a1.11,1.11,0,0,0-.85-.38,1.38,1.38,0,0,0-1.42,1.53s0,1.49,1.38,1.49a1.19,1.19,0,0,0,.89-.38v.23s.07.74-.64.74h-.25v.88h.39a1.45,1.45,0,0,0,1.47-1.56V12.74Zm-.6,2.09a.65.65,0,1,1,.64-.65A.65.65,0,0,1,19.84,14.83Z" transform="translate(-2.65 -2.65)"/></g></svg>