<svg id="Layer_1" data-name="Layer 1" xmlns="http://www.w3.org/2000/svg" xmlns:xlink="http://www.w3.org/1999/xlink" viewBox="0 0 24.7 24.7"><defs><style>.cls-1{fill:none;}.cls-2{clip-path:url(#clip-path);}.cls-3{fill:#fff;}</style><clipPath id="clip-path" transform="translate(-2.65 -2.65)"><rect class="cls-1" width="30" height="30"/></clipPath></defs><g class="cls-2"><circle class="cls-3" cx="12.35" cy="12.35" r="12.35"/><path d="M18.29,7.26H11.71a.8.8,0,0,0-.81.8v6.57a.8.8,0,0,0,.81.8h3a5,5,0,0,1-.81,2.39,9.69,9.69,0,0,1-1.67,1.8.41.41,0,0,0-.15.32.43.43,0,0,0,.11.27l2.12,2.39a.51.51,0,0,0,.18.13.38.38,0,0,0,.28,0,10.78,10.78,0,0,0,4.3-8.33V8.06a.8.8,0,0,0-.81-.8" transform="translate(-2.65 -2.65)"/></g></svg>