<svg id="Layer_1" data-name="Layer 1" xmlns="http://www.w3.org/2000/svg" xmlns:xlink="http://www.w3.org/1999/xlink" viewBox="0 0 24.7 24.7"><defs><style>.cls-1{fill:none;}.cls-2{clip-path:url(#clip-path);}.cls-3{fill:#fff;}</style><clipPath id="clip-path" transform="translate(-2.65 -2.65)"><rect class="cls-1" width="30" height="30"/></clipPath></defs><g class="cls-2"><circle class="cls-3" cx="12.35" cy="12.35" r="12.35"/><path d="M11.85,21.91A9.86,9.86,0,0,0,21.77,12c0-.15,0-.3,0-.45a7.09,7.09,0,0,0,1.74-1.8,7.15,7.15,0,0,1-2,.55A3.5,3.5,0,0,0,23,8.35a6.79,6.79,0,0,1-2.21.84,3.53,3.53,0,0,0-2.55-1.1,3.49,3.49,0,0,0-3.49,3.49,3.42,3.42,0,0,0,.09.79A9.88,9.88,0,0,1,7.68,8.73a3.5,3.5,0,0,0,1.08,4.66A3.52,3.52,0,0,1,7.18,13V13A3.49,3.49,0,0,0,10,16.41a3.2,3.2,0,0,1-1.57.06,3.49,3.49,0,0,0,3.25,2.43,7,7,0,0,1-4.33,1.49,7.55,7.55,0,0,1-.83-.05,9.87,9.87,0,0,0,5.35,1.57" transform="translate(-2.65 -2.65)"/></g></svg>